<?xml version="1.0" encoding="utf-8"?>
<!-- Generator: Adobe Illustrator 18.0.0, SVG Export Plug-In . SVG Version: 6.00 Build 0)  -->
<!DOCTYPE svg PUBLIC "-//W3C//DTD SVG 1.1//EN" "http://www.w3.org/Graphics/SVG/1.1/DTD/svg11.dtd">
<svg version="1.1" id="Layer_1" xmlns="http://www.w3.org/2000/svg" xmlns:xlink="http://www.w3.org/1999/xlink" x="0px" y="0px"
	 width="344px" height="76px" viewBox="0.1 -3 344 76" enable-background="new 0.1 -3 344 76" xml:space="preserve">
<g>
	<path fill="#123D64" d="M73.9,35v-1h3.4V5.8h-3.4v-1h13.2c8.6,0,9.9,4.6,9.9,6.6c0,5.9-5.1,7.1-9.3,7.4v0.1
		c5.1,1.3,8.6,3.2,8.2,10.3c-0.1,2.1,0.1,4.3,1.1,4.7c0.8,0.6,2.5,0.3,4-0.2v1.1c-1.5,0.5-2.8,0.8-4,0.8c-3.2,0-5-1.7-5.5-3.9
		c-0.2-0.8-0.5-4.5-0.8-7.2c-0.2-2.1-0.6-5.5-6.3-5.5h-2.7v14.8h3.5v1L73.9,35L73.9,35z M81.7,18.2h2.4c4.9,0,8-0.4,8-6.6
		c0-4.4-1.9-5.8-6.2-5.8h-4.2C81.7,5.8,81.7,18.2,81.7,18.2z"/>
	<path fill="#123D64" d="M100.8,19.9c0-8,5.1-15.7,12.8-15.7s12.8,7.7,12.8,15.7s-5.1,15.8-12.8,15.8S100.8,27.9,100.8,19.9z
		 M121.3,19.9c0-9.3-1.6-14.8-7.7-14.8c-6.2,0-7.7,5.4-7.7,14.8c0,9.3,1.6,14.8,7.7,14.8C119.8,34.7,121.3,29.2,121.3,19.9z"/>
	<path fill="#123D64" d="M149.2,5.8h-4.4v-1h9.2v1h-3.6L142.6,21v13h4v1h-12.2v-1h3.9V21l-8.6-15.2h-3.3v-1h12.1v1h-3.9l7.5,13.6
		L149.2,5.8z"/>
	<path fill="#123D64" d="M147.5,35v-1h3.5l9.7-29.6h1.7l9.2,29.6h3.1v1h-11.3v-1h3.6l-3.1-9.9h-8.5l-3.2,9.9h3.8v1H147.5z
		 M163.6,22.7L160,10.4h-0.1L156,22.7H163.6z"/>
	<path fill="#123D64" d="M174.7,35v-1h3.7V5.8h-3.7v-1h12.1v1h-4.1V34h8c3.7,0,5.4-4.6,5.9-7.4h0.8l-0.5,8.5L174.7,35L174.7,35z"/>
	<path fill="#123D64" d="M96,47.1h-1c-0.9-4.3-3.3-7.7-7.9-7.7c-2.9,0-5,2-5.9,3.7c-1.7,3.3-1.8,9.7-1.8,12.3c0,7.8,0.9,13.4,8,13.4
		c4.3,0,7.1-3.7,8.2-7.6h1.1v8.2h-1.2l-1.3-1.8c-2.1,1.8-4.5,2.5-7,2.5c-8.3,0-12.9-7.3-12.9-16c0-8.9,6.8-15.6,13.1-15.6
		c2.7,0,4.4,0.8,6.6,2.4l1.5-1.3h0.7v7.6C96.2,47.1,96,47.1,96,47.1z"/>
	<path fill="#123D64" d="M99.6,54.1c0-8,5.1-15.7,12.8-15.7s12.8,7.7,12.8,15.7s-5.1,15.8-12.8,15.8S99.6,62.1,99.6,54.1z
		 M120.2,54.2c0-9.3-1.6-14.8-7.7-14.8c-6.2,0-7.7,5.4-7.7,14.8c0,9.3,1.6,14.8,7.7,14.8C118.6,68.9,120.2,63.5,120.2,54.2z"/>
	<path fill="#123D64" d="M127,39h11.9c8.3,0,10.9,4.1,10.9,8c0,3.8-3.3,8.5-12.7,8.5H135v12.6h4v1h-12.1v-1h3.8v-28H127V39z
		 M134.9,54.6h1.5c7.3,0,8.6-2.6,8.6-7.7c0-6.4-2.9-6.8-8.9-6.8h-1.3L134.9,54.6L134.9,54.6z"/>
	<path fill="#123D64" d="M150,69.3v-1h3.9V40.1H150v-1h22.6v7.4h-1c-0.8-5.4-3.5-6.4-7.6-6.4h-5.8v13.1c4.5,0,5.9,0,6.6-4.9h1v11.5
		h-1c-0.3-4.9-2.1-5.5-6.6-5.5v14h5.4c5.9,0,7.9-0.7,9-7.4h1.2l-0.6,8.5L150,69.3L150,69.3z"/>
	<path fill="#123D64" d="M179.2,40.1h-3.5v-1h8.7l12.7,21.8h0.1V40.1h-3.5v-1h8.3v1h-3.4V70h-1.2l-16.7-29h-0.1v27.3h3.4v1h-8.3v-1
		h3.5V40.1z"/>
	<path fill="#123D64" d="M224.6,53V40.1h-3.5v-1h11.3v1h-3.5v28.2h3.5v1h-11.3v-1h3.5v-14h-12.9v13.9h3.5v1h-11.3v-1h3.5V40.1h-3.5
		v-1h11.3v1h-3.5v13L224.6,53L224.6,53z"/>
	<path fill="#123D64" d="M233.5,69.3v-1h3.5l9.7-29.6h1.7l9.2,29.6h3.1v1h-11.3v-1h3.6l-3.1-9.9h-8.5l-3.2,9.9h3.8v1H233.5z
		 M249.6,57l-3.7-12.3l0,0l-4,12.3C241.9,57,249.6,57,249.6,57z"/>
	<path fill="#123D64" d="M284.8,39.4h0.7v7.7h-1c-0.9-4.5-4.1-7.7-9.1-7.7c-2.9,0-5,1.9-5.9,3.7c-1.7,3.3-1.8,9.7-1.8,12.3
		c0,7.8,0.9,13.6,8,13.6c6.1,0,6.4-4.2,6.3-9.3h-4.3v-1.1h12.1v1.1h-2.7c-0.3,5.1-2.5,10.3-11.5,10.3c-8.3,0-12.9-7.3-12.9-16
		c0-8.9,6.8-15.6,13.1-15.6c3.1,0,5.7,0.9,7.6,2.7L284.8,39.4z"/>
	<path fill="#123D64" d="M289.8,69.3v-1h3.9V40.1h-3.9v-1h22.6v7.4h-1c-0.8-5.4-3.5-6.4-7.6-6.4H298v13.1c4.5,0,5.9,0,6.6-4.9h1
		v11.5h-1c-0.3-4.9-2.1-5.5-6.6-5.5v14h5.4c5.9,0,7.9-0.7,9-7.4h1.2l-0.6,8.5L289.8,69.3L289.8,69.3z"/>
	<path fill="#123D64" d="M319.1,40.1h-3.5v-1h8.7l12.8,21.8h0.1V40.1h-3.5v-1h8.3v1h-3.4V70h-1.2l-16.7-29h-0.1v27.3h3.4v1h-8.3v-1
		h3.5L319.1,40.1L319.1,40.1z"/>
</g>
<g>
	<path fill="#B4975A" d="M60.4,21.7c0.3-0.3,0.4-0.7,0.4-1.1c0-0.5-0.3-1-0.7-1.3l0,0c0.2-0.2,0.2-0.5,0.2-0.8
		c0-0.7-0.5-1.3-1.2-1.5v-0.1c0-0.1,0-0.2,0-0.3c0-0.8-0.7-1.5-1.5-1.5c-0.1,0-0.2,0-0.3,0l0,0c-0.2-0.6-0.8-1-1.4-1
		c-0.2,0-0.4,0.1-0.6,0.1l0,0c-0.3-0.4-0.7-0.7-1.3-0.7c-0.3,0-0.6,0.1-0.8,0.3l0,0c-0.2-0.2-0.5-0.3-0.8-0.3
		c-0.5,0-0.9,0.2-1.2,0.6c-0.3-0.2-0.6-0.4-1-0.4c-0.2,0-0.3,0-0.5,0.1c-0.1-0.7-0.7-1.3-1.5-1.3c-0.2,0-0.3,0-0.4,0.1l0,0
		c0-0.8-0.7-1.5-1.5-1.5c-0.4,0-0.8,0.2-1.1,0.5l0,0c-0.3-0.4-0.7-0.7-1.3-0.7s-1.1,0.3-1.3,0.8l0,0c-0.2-0.2-0.6-0.3-0.9-0.3
		c-0.6,0-1.1,0.3-1.3,0.8h-0.1c-0.1,0-0.2,0-0.3,0c-0.5,0-1,0.3-1.3,0.7c-0.1,0-0.3-0.1-0.4-0.1c-0.5,0-1,0.3-1.3,0.7l0,0
		c-0.2-0.2-0.5-0.2-0.8-0.2c-0.1,0-0.2,0-0.3,0v-0.1C36,13,36,12.8,36,12.6l0,0c0.3-0.2,0.5-0.5,0.5-0.9c0-0.3-0.2-0.6-0.4-0.8l0,0
		c-0.2-1.4-1-2.6-2.2-3.3l0,0c-0.1-0.5-0.4-0.8-0.8-0.9c0-0.2,0-0.9,0-0.9h1c0,0.6,0.5,1.1,1.1,1.1c0.5,0,1-0.4,1-0.9l0,0
		c0.5-0.1,0.8-0.5,0.8-1s-0.4-1-0.9-1l0,0C36,3.3,35.6,3,35.1,3c-0.6,0-1,0.4-1.1,1h-1V2.9l0,0c0.5-0.1,0.8-0.5,0.8-1
		s-0.4-0.9-0.9-1l0,0C32.9,0.4,32.5,0,32,0l0,0c-0.5,0-0.9,0.4-1,0.8l0,0c-0.6,0.2-1,0.6-1,1.1s0.4,0.9,0.8,1l0,0v1.1h-1
		c0-0.5-0.5-1-1.1-1c-0.5,0-0.9,0.4-1,0.8l0,0c-0.5,0.1-0.9,0.5-0.9,1s0.4,0.9,0.8,1l0,0c0.1,0.5,0.5,0.9,1,0.9
		c0.6,0,1.1-0.5,1.1-1.1h1c0,0,0,0.6,0,0.9C30.3,6.7,30,7,29.9,7.5l0,0c-1.2,0.7-2,1.9-2.2,3.3l0,0c-0.2,0.2-0.4,0.5-0.4,0.8
		c0,0.4,0.2,0.7,0.5,0.9l0,0c0,0.2,0.1,0.3,0.1,0.5v0.1c-0.1,0-0.2,0-0.3,0c-0.3,0-0.6,0.1-0.8,0.2l0,0c-0.3-0.4-0.7-0.7-1.3-0.7
		c-0.1,0-0.3,0-0.4,0.1c-0.1-0.4-0.6-0.6-1.1-0.6c-0.1,0-0.2,0-0.3,0h-0.1c-0.2-0.5-0.8-0.8-1.3-0.8c-0.3,0-0.7,0.1-0.9,0.3l0,0
		c-0.3-0.5-0.8-0.8-1.3-0.8s-1,0.3-1.3,0.7l0,0c-0.3-0.3-0.7-0.5-1.1-0.5c-0.8,0-1.5,0.7-1.5,1.5l0,0c-0.1,0-0.3-0.1-0.4-0.1
		c-0.8,0-1.4,0.5-1.5,1.3c-0.1,0-0.3-0.1-0.5-0.1c-0.4,0-0.7,0.1-1,0.4c-0.3-0.4-0.7-0.6-1.2-0.6c-0.3,0-0.6,0.1-0.8,0.3l0,0
		c-0.2-0.2-0.5-0.3-0.8-0.3c-0.5,0-1,0.3-1.3,0.7l0,0c-0.2-0.1-0.4-0.1-0.6-0.1c-0.7,0-1.2,0.4-1.4,1l0,0c-0.1,0-0.2,0-0.3,0
		c-0.8,0-1.5,0.7-1.5,1.5c0,0.1,0,0.2,0,0.3V17c-0.7,0.1-1.2,0.8-1.2,1.5c0,0.3,0.1,0.6,0.2,0.8l0,0C3.3,19.7,3,20.1,3,20.7
		c0,0.4,0.2,0.8,0.4,1.1l0,0c-0.2,0.2-0.3,0.5-0.3,0.8c0,0.5,0.3,0.9,0.7,1.1l0,0c-0.1,0.1-0.1,0.3-0.1,0.5c0,0.5,0.4,1,0.8,1.2l0,0
		c-0.1,0.1-0.1,0.3-0.1,0.5c0,0.5,0.3,1,0.8,1.1c0,0.1,0,0.2,0,0.3c0,0.6,0.4,1.1,0.9,1.2v0.1C6,28.9,6,29,6,29.2
		c0,0.6,0.5,1.1,1.1,1.1c0.2,0,0.5-0.1,0.7-0.2l0,0c0.7,0.4,1.2,1.2,1.6,1.9v0.1c-0.1,0.2-0.2,0.4-0.2,0.6c0,0.7,0.6,1.2,1.2,1.2
		c0.1,0,0.1,0,0.2,0c0,0,1.4,1.8,2.1,2.6l0,0c-0.2,0.2-0.4,0.5-0.4,0.8c0,0.6,0.4,1,1,1.1l0.2,0.9c-0.2,0.4-0.4,0.8-0.4,1.3
		c0,1,0.5,1.9,1.4,2.3c0,0,0,0,0,1.1c0,0-0.5,0.2-0.6,0.5c-0.1,0.2-0.2,0.4-0.2,0.6c0,0.4,0.2,0.8,0.6,1c0,0,0.5,0.4,1.7,0.5
		c4.1,0.5,8.2,0.8,12.5,0.9c1.1,0,2.2,0,3.4,0l0,0c1.1,0,2.3,0,3.4,0c4.3-0.1,8.4-0.4,12.5-0.9c1.3-0.2,1.7-0.5,1.7-0.5
		c0.4-0.2,0.6-0.6,0.6-1c0-0.2-0.1-0.4-0.2-0.6c-0.2-0.3-0.6-0.5-0.6-0.5c0-1.1,0-1.1,0-1.1c0.8-0.4,1.4-1.3,1.4-2.3
		c0-0.5-0.1-0.9-0.4-1.3l0.2-0.9c0.5-0.1,1-0.5,1-1.1c0-0.3-0.1-0.6-0.4-0.8l0,0c0.8-0.8,2.1-2.6,2.1-2.6c0.1,0,0.1,0,0.2,0
		c0.7,0,1.2-0.6,1.2-1.2c0-0.2-0.1-0.4-0.2-0.6v-0.1c0.4-0.7,0.9-1.5,1.6-1.9l0,0c0.2,0.1,0.4,0.2,0.7,0.2c0.6,0,1.1-0.5,1.1-1.1
		c0-0.2,0-0.4-0.1-0.5v-0.1c0.5-0.1,0.9-0.6,0.9-1.2c0-0.1,0-0.2,0-0.3c0.5-0.2,0.8-0.6,0.8-1.1c0-0.2,0-0.3-0.1-0.5l0,0
		c0.5-0.2,0.8-0.6,0.8-1.2c0-0.2,0-0.3-0.1-0.5l0,0c0.4-0.2,0.7-0.6,0.7-1.1C60.7,22.2,60.6,22,60.4,21.7L60.4,21.7L60.4,21.7z
		 M50,23.1c0.2-0.3,0.1-0.7,0-1.1c0.1-0.1,0.3-0.2,0.5-0.4c0.2-0.3,0.3-0.8,0.1-1.1c-0.2-0.2,0-0.4,0.2-0.5c0.3-0.2,0.8,0.2,1.2,0
		c0.4,0.5,0.9,0.9,1.6,0.7c0.3,0.2,0.5,0.4,0.8,0.5c0,0,0.1,0,0,0.1c-0.2,0.4,0.1,0.9,0,1.3c-0.2,0.6-0.1,1.1,0,1.7
		C54.2,24.9,54,25.5,54,26c-0.1,0.2,0,0.3,0,0.6c-0.4,0-0.9,0.1-1.2,0.2c-0.1-0.2-0.3-0.4-0.5-0.6c-0.7-0.4-1.3-0.8-2.1-1.1
		c-0.5-0.2-0.8-0.1-1.1-0.2c-0.4-0.2,0.5-0.6,0.4-1.1C49.1,23.4,49.9,23.4,50,23.1L50,23.1z M48.6,32.4c-0.2,0-0.3,0-0.5,0
		c0.2-0.6,0.5-1.1,0.6-1.7c0.1-0.7-0.1-1.4-0.6-1.8c0.1-0.2,0.1-0.4,0.2-0.5c0.1-0.6-0.1-1.1-0.4-1.5c-0.2-0.2-0.7-0.5-0.4-0.7
		c0.4-0.1,1.2,0.1,1.2,0.1c1.6,0.3,2.5,0.9,3.3,1.8c0,0,0.1,0,0.1,0.1c-0.1,0.1-0.2,0.3-0.3,0.5c-0.3-0.1-0.6-0.3-1-0.2
		C49.5,28.7,48.5,31.2,48.6,32.4L48.6,32.4z M36.1,15c0.1-0.2,0.3-0.2,0.5-0.3c1.4-0.3,2.8-0.6,4.1-1.1c1.6-0.6,3.3-1.1,5-0.7
		c0.1,0,0.3,0.1,0.4,0.1c2,0.6,3,2.8,3.2,4.8c0,0.1,0,0.8,0,1.1c-0.1,1.7-0.7,3.7-1.7,5.2c-0.3,0.4-0.7,1-1.1,1.2
		c-0.2,0.1-0.3,0-0.4-0.1c-0.2-0.1-0.1-0.3-0.1-0.5c0.9-1.1,1.6-2.2,2.1-3.6c0.7-1.5,0.5-3.6-0.1-5.1c-0.2-0.3-0.3-0.7-0.6-1
		c-1-1.4-3.4-1.7-4.6-1.3C40.9,14.3,39,15,37,15.4c-0.5,0.1-0.7,0.2-1-0.1C36,15.4,36,15.2,36.1,15L36.1,15z M45.8,20.5
		c0.2-0.5,0.9-1.1,0.8-1.5c-0.1-0.1-0.2-0.2-0.3-0.2c-0.2,0-0.4,0.2-0.5,0.4c-0.1,0.1-0.3,0.1-0.4-0.1c-0.1-0.2,0-0.5,0.1-0.7
		c0.2-0.3-0.3-0.4-0.2-0.7c0.3-0.4,0.5-1,0.4-1.5c-0.1-0.4-0.6-0.5-0.6-0.9c0-0.1,0.1-0.3,0.3-0.2c0.5,0.1,0.9,0.6,1,1.1
		c0.2,0.5-0.2,0.9,0.1,1.3c0.2,0.1,0.3-0.2,0.5-0.1c0.1,0,0.2,0.1,0.3,0.2c0.3,0.6,0.2,1.3,0.1,2c-0.1,0.8-0.9,1.2-0.8,2.1
		c0,0.3-0.6,1.6-1,1.5c-0.3-0.4,0.1-0.8,0.1-1.3C45.2,21.4,45.6,20.9,45.8,20.5L45.8,20.5z M36.6,26.8c-0.2-0.1-0.5-0.2-0.6-0.4
		c0.1-0.7-0.2-1.2-0.6-1.8c0.3,0,0.2-0.1,0.4-0.1c1-0.1,1.5-0.2,2.4-0.3c0.8-0.1,1.6-0.3,2.4-0.4c1.8-0.1,2.5,0.3,3.6,0.8
		c0.2,0.2,0.7,0.2,0.6,0.7c-0.1,0.2-1.1,0.1-1.6,0.2c-0.6,0.2-1,0.7-1.2,1.3c-0.7,0-1.3,0.5-1.6,0.9c-0.7,1.1-0.7,4.1-0.7,4.1
		c-0.4-0.1-0.5-0.7-0.9-0.8c-0.3-0.1-0.5,0.2-0.7,0.4c-0.1,0.1-0.3,0.2-0.4,0.2c0.1-0.3,0.1-0.6,0.2-0.8
		C38,29.3,37.8,27.5,36.6,26.8L36.6,26.8z M43.3,14.8c0.4-0.1,0.8,0.5,1,0.9c0,0.1,0.1,0.3,0.1,0.6c-0.2,0.4,0.2,0.8,0,1.2
		c0,0.2-0.2,0.3-0.4,0.3c-0.8-0.2-0.7-1.3-1.5-1.7c-0.3,0-0.4,0.2-0.8,0.2c-0.3,0-0.7-0.1-0.9-0.4c-0.1-0.1,0-0.3,0.1-0.3
		c0.4-0.1,0.8-0.1,1.1-0.3c0.4-0.1,0.7,0.2,1,0.2C43.3,15.3,43,15,43.3,14.8L43.3,14.8z M35.4,22.9c0.1-0.1,0.3-0.1,0.4-0.2
		c0.8-0.6,0.6-1.9,0.3-2.7c0.3-0.4,0.4-1,0.1-1.5c0.2-0.5,0.2-1.1,0.2-1.7c0.2,0,0.3,0,0.5,0c0.8,0.1,1.7,0,2.4-0.1
		c0.5-0.2,0.7,0.5,0.9,0.6c0.2,0.2,0.3,0.2,0.7,0.3c0.5,0.1,0.9,0,1.2,0.2c0.2,0.4,0.6,0.9,1.1,1.1c0.2,0.1,0.5,0,0.7,0.2
		c0,0.6,0.2,1,0.5,1.5c-0.2,0.3-0.3,0.9-0.1,1.3c0,0.4-0.2,1.1-0.2,1.1c0,0.1,0,0.1-0.1,0.3c-0.3-0.1-0.6-0.3-0.9-0.4
		c-1.5-0.7-3.2-0.2-4.7,0c-1,0.1-2.1,0.3-3.1,0.3C35.4,23.2,35.4,23.2,35.4,22.9L35.4,22.9z M35,18.6c0,0.2,0,0.5-0.2,0.7
		c-0.1,0.3,0.2,0.5,0.2,0.9c0.1,0.1,0.3,1,0,1.4c-0.3,0.3-0.4-0.1-0.7-0.1c-0.3,0.2-0.2,0.6-0.3,1c0,0.1,0,0.4-0.3,0.4
		c-0.2-0.1-0.2-0.2-0.3-0.5c-0.1-0.6-0.1-1.3,0.1-1.8c0.2-0.3,0.4-0.1,0.5-0.1c0.2-0.1,0.2-0.2,0.2-0.3c0-0.1-0.3-1.1-0.6-1.5
		c-0.4-0.4,0.1-0.9-0.1-1.4c-0.1-0.1-0.1-0.2,0.1-0.3c0.2-0.1,0.3,0,0.5,0s0.2-0.1,0.2-0.3c-0.3-0.5-0.7-1-0.6-1.6
		c0.1-0.1,0.2-0.2,0.3-0.2c0.2,0.1,0.2,0.1,0.4,0.3c0.2,0.4,0.7,1.4,0.7,1.9c0,0.1-0.1,0.8-0.4,0.9C34.7,18.3,35,18.4,35,18.6
		L35,18.6z M33,8.6c0,0,0.2,0,0.4,0.1c0.7,0.3,1.1,0.7,1.4,1.4c0.1,0.2,0.1,0.4,0,0.6c-0.6,0-1.7-0.2-1.7-0.2L33,8.6L33,8.6z
		 M31.9,12.5L31.9,12.5c0.8,0,1.7,0.1,2.5,0.1c0.2,0,0.4,0.2,0.3,0.4c0,0.1-0.2,0.2-0.3,0.3c-0.8-0.1-1.6,0-2.4,0l0,0
		c-0.8,0-1.6,0-2.4,0c-0.1,0-0.3-0.1-0.3-0.3c0-0.2,0.1-0.4,0.3-0.4C30.3,12.5,31.1,12.5,31.9,12.5L31.9,12.5z M31.9,14.2L31.9,14.2
		L31.9,14.2L31.9,14.2L31.9,14.2C32,14.2,32,14.2,31.9,14.2L31.9,14.2C32,14.2,32,14.2,31.9,14.2c0.9,0,0.6,2,0.6,4.5
		s0.3,4.5-0.6,4.5l0,0c-0.9,0-0.6-2-0.6-4.5S31.1,14.2,31.9,14.2L31.9,14.2z M29.2,10.1c0.3-0.7,0.7-1.1,1.4-1.4
		C30.8,8.6,31,8.6,31,8.6v1.9c0,0-1.1,0.1-1.7,0.2C29,10.6,29.1,10.3,29.2,10.1L29.2,10.1z M29.3,15.2c0.2-0.2,0.2-0.2,0.4-0.3
		c0.2,0,0.3,0.1,0.3,0.2c0.1,0.6-0.3,1.1-0.6,1.6c-0.1,0.2,0,0.3,0.2,0.3s0.4-0.2,0.5,0c0.2,0.1,0.1,0.2,0.1,0.3
		c-0.2,0.5,0.3,1-0.1,1.4c-0.3,0.5-0.6,1.4-0.6,1.5c0,0.1,0,0.2,0.2,0.3c0.2,0,0.4-0.2,0.5,0.1c0.2,0.5,0.2,1.2,0.1,1.8
		c-0.1,0.3-0.1,0.4-0.3,0.5c-0.3,0-0.3-0.2-0.3-0.4c-0.1-0.3,0-0.8-0.3-1c-0.3,0-0.4,0.3-0.7,0.1c-0.3-0.4-0.1-1.2,0-1.4
		c0.1-0.3,0.4-0.6,0.2-0.9c-0.2-0.2-0.2-0.5-0.2-0.7c0-0.3,0.3-0.3,0.1-0.6c-0.2-0.1-0.4-0.8-0.4-0.9C28.6,16.5,29.1,15.5,29.3,15.2
		L29.3,15.2z M28.5,22.9c0.1,0.2,0.1,0.2,0.1,0.4c-1.1,0-2.1-0.2-3.1-0.3c-1.5-0.2-3.2-0.8-4.7,0c-0.3,0.1-0.6,0.2-0.9,0.4
		c-0.1-0.2-0.1-0.2-0.1-0.3c0,0-0.2-0.7-0.2-1.1c0.2-0.4,0-1-0.1-1.3c0.2-0.5,0.5-0.9,0.5-1.5c0.1-0.2,0.5-0.1,0.7-0.2
		c0.5-0.2,0.8-0.6,1.1-1.1c0.4-0.2,0.8-0.1,1.2-0.2c0.4-0.1,0.5-0.2,0.7-0.3c0.2-0.1,0.4-0.8,0.9-0.6c0.7,0.1,1.6,0.2,2.4,0.1
		c0.2,0,0.3,0,0.5,0c-0.1,0.6,0,1.1,0.2,1.7c-0.2,0.5-0.1,1.1,0.1,1.5c-0.2,0.9-0.5,2.1,0.3,2.7C28.2,22.8,28.3,22.9,28.5,22.9
		L28.5,22.9z M27.9,26.4c-0.2,0.2-0.5,0.2-0.6,0.4c-1.2,0.7-1.4,2.6-1.2,4.1c0.1,0.2,0.1,0.6,0.2,0.8c-0.1,0-0.3-0.1-0.4-0.2
		c-0.1-0.2-0.4-0.4-0.7-0.4c-0.4,0.1-0.5,0.7-0.9,0.8c0,0,0-3-0.7-4.1c-0.3-0.5-0.9-1-1.6-0.9c-0.2-0.6-0.6-1.1-1.2-1.3
		c-0.5-0.2-1.5,0-1.6-0.2c-0.1-0.4,0.3-0.5,0.6-0.7c1-0.6,1.8-1,3.6-0.8c0.9,0.1,1.6,0.3,2.4,0.4c0.9,0.1,1.4,0.2,2.4,0.3
		c0.2,0,0.1,0,0.4,0.1C28.1,25.1,27.8,25.6,27.9,26.4L27.9,26.4z M19.5,16.4c-0.1-0.3,0-0.5,0.1-0.6c0.2-0.4,0.6-1,1-0.9
		c0.3,0.1,0,0.5,0.2,0.7c0.4,0,0.6-0.3,1-0.2c0.4,0.2,0.7,0.2,1.1,0.3c0.1,0.1,0.2,0.2,0.1,0.3c-0.2,0.3-0.5,0.4-0.9,0.4
		c-0.4,0-0.5-0.2-0.8-0.2c-0.8,0.3-0.7,1.4-1.5,1.7c-0.2,0-0.4-0.1-0.4-0.3C19.4,17.2,19.7,16.8,19.5,16.4L19.5,16.4z M14.7,18
		c0.2-1.9,1.2-4.2,3.2-4.8c0.1,0,0.3-0.1,0.4-0.1c1.7-0.5,3.5,0,5,0.7c1.3,0.4,2.7,0.8,4.1,1.1c0.2,0,0.4,0.1,0.5,0.3
		c0.1,0.1,0.1,0.4,0,0.5c-0.2,0.3-0.4,0.2-1,0.1c-2-0.5-3.9-1.1-5.8-1.7c-1.2-0.4-3.6-0.1-4.6,1.3c-0.2,0.3-0.4,0.6-0.6,1
		c-0.5,1.5-0.7,3.6-0.1,5.1c0.5,1.3,1.2,2.4,2.1,3.6c0.1,0.2,0.1,0.3-0.1,0.5c-0.1,0.1-0.2,0.2-0.4,0.1c-0.5-0.2-0.8-0.8-1.1-1.2
		c-1-1.5-1.7-3.4-1.7-5.2C14.6,18.8,14.7,18,14.7,18L14.7,18z M18.7,17.8c0.1,0.3-0.4,0.4-0.2,0.7c0.1,0.2,0.2,0.4,0.1,0.7
		c-0.1,0.2-0.3,0.2-0.4,0.1c-0.1-0.2-0.3-0.4-0.5-0.4c-0.1,0-0.2,0.1-0.3,0.2c-0.1,0.3,0.6,1,0.8,1.5c0.2,0.4,0.6,0.9,0.2,1.3
		c0,0.4,0.5,0.9,0.1,1.3c-0.4,0.1-1-1.2-1-1.5c0.1-0.9-0.7-1.3-0.8-2.1c-0.1-0.7-0.2-1.3,0.1-2c0.1-0.1,0.2-0.2,0.3-0.2
		c0.2,0,0.3,0.2,0.5,0.1c0.3-0.4-0.1-0.8,0.1-1.3c0.1-0.5,0.5-0.9,1-1.1c0.2,0,0.4,0.1,0.3,0.2c0,0.4-0.5,0.5-0.6,0.9
		C18.2,16.7,18.4,17.3,18.7,17.8L18.7,17.8z M15.5,28.3c0.1,0.2,0.1,0.4,0.2,0.5c-0.4,0.4-0.7,1.1-0.6,1.8c0.1,0.6,0.3,1.2,0.6,1.7
		c-0.2,0-0.3,0.1-0.5,0c0.1-1.1-0.8-3.7-2.2-4.1c-0.3-0.1-0.7,0.1-1,0.2c-0.2-0.2-0.2-0.4-0.3-0.5c0-0.1,0.1,0,0.1-0.1
		c0.8-0.9,1.8-1.6,3.3-1.8c0,0,0.8-0.2,1.2-0.1c0.3,0.2-0.2,0.5-0.4,0.7C15.6,27.2,15.4,27.7,15.5,28.3L15.5,28.3z M13.9,22
		c-0.1,0.3-0.2,0.8,0,1.1c0.1,0.3,0.9,0.3,0.5,0.8c-0.2,0.5,0.8,1,0.4,1.1c-0.3,0.1-0.6,0.1-1.1,0.2c-0.8,0.3-1.4,0.7-2,1.1
		c-0.2,0.1-0.4,0.3-0.5,0.6c-0.3-0.2-0.8-0.3-1.2-0.2c0-0.3,0.1-0.4,0-0.6c0-0.6-0.2-1.1-0.4-1.6c0.2-0.6,0.2-1.1,0-1.7
		c-0.2-0.4,0.2-1,0-1.3c-0.1-0.1,0-0.1,0-0.1c0.2-0.2,0.5-0.4,0.8-0.5c0.7,0.1,1.2-0.3,1.6-0.7c0.4,0.1,0.9-0.2,1.2,0
		c0.2,0.1,0.4,0.3,0.2,0.5c-0.2,0.3-0.1,0.9,0.1,1.1C13.6,21.8,13.8,21.9,13.9,22L13.9,22z M7.8,27.8c-0.3,0.1-0.6-0.2-0.7-0.4
		c-0.6-0.9-1.1-1.7-1.4-2.7c-0.7-1.9-1-4.3-0.1-6.3c0.3-0.7,0.9-1.3,1.5-1.7c1.6-1.1,3.8-1.6,5.9-1.1c0.2,0.1,0.6,0.1,0.6,0.5
		c0,0.2,0,0.2-0.1,0.3c-0.1,0.2-0.4,0.2-0.9,0.1c-1.3-0.3-2.7-0.1-3.9,0.4c-1,0.5-2.2,1.2-2.5,2.3c-0.9,2.8,0.3,5.9,1.9,8.1
		C8,27.4,8.1,27.6,7.8,27.8L7.8,27.8z M8.7,25.7c0,0.2-0.2,0.1-0.3,0.1c-0.6-0.4-0.8-1-1.1-1.7c-0.2-0.5-0.5-0.8-0.2-1.3
		c0.2-0.4,0.2-0.3,0.3-0.6c0-0.1,0.1-0.2,0-0.4c-0.5-0.7-0.6-2.3,0-2.7c0.2-0.1,0.4-0.1,0.3,0.1c-0.2,0.5-0.3,1.2,0.1,1.7
		c0.4,0.3,0.6,0.7,0.6,1.2c0,0.2,0,0.3-0.1,0.4c0.1,0.4,0.4,0.9,0.1,1.3c-0.1,0.1-0.3,0.1-0.3,0.2C8.4,24.4,8.8,25.1,8.7,25.7
		L8.7,25.7z M8.6,19c0-0.1,0-0.2,0.1-0.4c0.2-0.4,0.8-1.1,1-1c0.3,0.1-0.4,0.8,0.2,1c0.7,0,0.7-0.8,1.2-1.1c0.4-0.2,0.8-0.2,1.3-0.1
		c0.4,0.1,0.5,0.4,0.5,0.6c0,0.2,0,0.4-0.1,0.5c-0.5,0.3-1-0.6-1.4,0c-0.3,0.3-0.3,0.9-0.8,0.9c-0.3,0-0.4-0.2-0.7-0.1
		c-0.2,0.2-0.5,0.4-0.8,0.3C8.7,19.7,8.6,19.5,8.6,19L8.6,19z M14.4,40.8c0,0.1,0,0.3,0,0.3c-0.2,0-0.3-0.3-0.3-0.6
		c0-0.3,0.2-0.6,0.4-0.7c0.1-0.1,0.2,0,0.3,0c0.1,0.1,0.2,0.5,0,0.5C14.8,40.5,14.5,40.6,14.4,40.8L14.4,40.8z M15.1,39.4
		c-0.2-0.2-0.4-0.6,0-0.6c0.5,0,0.8,0.6,1,1c0.3,0.8,0.2,1.8-0.5,2.4c-0.1,0.1-0.2,0.1-0.3,0.1c-0.2-0.1,0-0.3,0.1-0.4
		c0.1-0.1,0.1-0.1,0.1-0.2C15.9,41,15.6,40,15.1,39.4L15.1,39.4z M32,46.4L32,46.4c-0.8,0-10.7-0.2-11.9-0.5
		c1.7-0.4,9.2-0.5,11.9-0.5l0,0c2.7,0,10.2,0.1,11.9,0.5C42.7,46.3,32.8,46.4,32,46.4L32,46.4z M48.3,45.4
		c-5.5-0.6-10.7-0.8-16.4-0.9l0,0c-5.6,0-10.9,0.3-16.4,0.9c-0.4,0-0.7-0.1-0.7-0.3s0.1-0.4,0.2-0.4c1.5-0.3,3.2-0.4,4.7-0.6
		c4-0.4,8.1-0.6,12.2-0.6l0,0c4.1,0,8.2,0.2,12.2,0.6c1.5,0.1,3.2,0.3,4.7,0.6c0.2,0,0.3,0.2,0.2,0.4C49,45.3,48.7,45.4,48.3,45.4
		L48.3,45.4z M18.8,39.5l-0.6,0.1c-0.4,0-0.7-0.2-0.8-0.6c0-0.4,0.2-0.7,0.6-0.8l0.6-0.1c0.4,0,0.7,0.2,0.8,0.6
		C19.5,39.1,19.2,39.4,18.8,39.5L18.8,39.5z M19.8,42.1c0,0.4-0.2,0.7-0.6,0.8L18.6,43c-0.4,0-0.7-0.2-0.8-0.6
		c0-0.4,0.2-0.7,0.6-0.8l0.6-0.1C19.4,41.5,19.7,41.7,19.8,42.1L19.8,42.1z M21.3,39.9l0.9-1.1c0.2-0.2,0.4-0.2,0.6-0.1l1.1,0.9
		c0.2,0.2,0.2,0.4,0.1,0.6l-1,1.1c-0.2,0.2-0.4,0.2-0.6,0.1l-1.1-0.9C21.2,40.3,21.1,40.1,21.3,39.9L21.3,39.9z M26.9,38.9h-0.6
		c-0.4,0-0.7-0.3-0.7-0.7c0-0.4,0.3-0.7,0.7-0.7h0.6c0.4,0,0.7,0.3,0.7,0.7C27.6,38.6,27.3,38.9,26.9,38.9L26.9,38.9z M27.7,41.6
		c0,0.4-0.3,0.7-0.7,0.7h-0.6c-0.4,0-0.7-0.3-0.7-0.7c0-0.4,0.3-0.7,0.7-0.7H27C27.4,40.9,27.7,41.2,27.7,41.6L27.7,41.6z M29.3,41
		v-3.6c0-0.3,0.2-0.6,0.6-0.6h4.6c0.3,0,0.6,0.3,0.6,0.6V41c0,0.3-0.2,0.6-0.6,0.6h-4.6C29.5,41.5,29.3,41.3,29.3,41L29.3,41z
		 M36.9,40.9h0.6c0.4,0,0.7,0.3,0.7,0.7c0,0.4-0.3,0.7-0.7,0.7h-0.6c-0.4,0-0.7-0.3-0.7-0.7C36.2,41.2,36.5,40.9,36.9,40.9
		L36.9,40.9z M36.3,38.1c0-0.4,0.3-0.7,0.7-0.7h0.6c0.4,0,0.7,0.3,0.7,0.7c0,0.4-0.3,0.7-0.7,0.7H37C36.6,38.9,36.3,38.6,36.3,38.1
		L36.3,38.1z M40,39.6l1.1-0.9c0.2-0.2,0.5-0.1,0.6,0.1l0.9,1.1c0.2,0.2,0.1,0.5-0.1,0.6l-1.1,0.9c-0.2,0.2-0.5,0.1-0.6-0.1l-0.8-1
		C39.8,40.1,39.8,39.8,40,39.6L40,39.6z M44.9,41.5l0.6,0.1c0.4,0,0.7,0.4,0.6,0.8c-0.1,0.4-0.4,0.7-0.8,0.6l-0.6-0.1
		c-0.4,0-0.7-0.4-0.6-0.8C44.2,41.7,44.5,41.5,44.9,41.5L44.9,41.5z M44.5,38.7c0-0.4,0.4-0.7,0.8-0.6l0.6,0.1
		c0.4,0,0.7,0.4,0.6,0.8c0,0.4-0.4,0.7-0.8,0.6l-0.6-0.1C44.7,39.4,44.4,39.1,44.5,38.7L44.5,38.7z M48.4,41.8
		c0,0.1,0.1,0.1,0.1,0.2c0.1,0.1,0.3,0.3,0.1,0.4c-0.1,0-0.2,0-0.3-0.1c-0.6-0.6-0.8-1.6-0.5-2.4c0.2-0.4,0.5-1,1-1
		c0.3,0,0.1,0.4,0,0.6C48.3,40,48,41,48.4,41.8L48.4,41.8z M49.5,41.1c-0.1,0,0-0.2,0-0.3c-0.1-0.2-0.4-0.3-0.4-0.4
		c-0.1-0.1-0.1-0.4,0-0.5c0.1-0.1,0.2-0.1,0.3,0c0.2,0.1,0.4,0.4,0.4,0.7C49.8,40.9,49.7,41.2,49.5,41.1L49.5,41.1z M50.1,37.7
		c-0.1,0-0.4,0-0.6,0c-0.9-0.2-7.7-1.6-17.5-1.6l0,0c-9.8,0-16.6,1.3-17.5,1.6c-0.2,0-0.5,0.1-0.6,0s-0.3-0.3-0.2-0.4
		c0.1-0.1,0.2-0.2,0.3-0.3c3.5-0.8,10.9-1.9,18-1.9l0,0c7.1,0,14.5,1.1,18,1.9c0.1,0,0.3,0.1,0.3,0.3C50.4,37.5,50.2,37.7,50.1,37.7
		L50.1,37.7z M54.7,29.7c-0.6,0.6-1,1.3-1.3,2l0,0c-0.5-0.3-0.7-0.2-0.9,0.3c-0.3,0.5-0.3,0.6,0.1,0.9v0.1c-0.6,1-1.2,1.8-2.1,2.6
		c-0.7,0.6-2.1,0-2.3-1.1c-1.9,1.4-4.2,0.3-4.7-1.3c-1.1,1.2-2.6,2.1-5,0.2c-1.6,0.9-4.4,1.6-6.4-1l0,0c-1.9,2.6-4.7,1.8-6.4,1
		c-2.5,1.9-4,1-5-0.2c-0.5,1.6-2.8,2.7-4.7,1.3c-0.1,1-1.5,1.7-2.3,1.1c-1-0.8-1.5-1.6-2.1-2.6V33c0.4-0.3,0.4-0.5,0.1-0.9
		c-0.3-0.5-0.4-0.6-0.9-0.3l0,0c-0.3-0.7-0.8-1.4-1.3-2c-0.2-0.2-0.6-0.4-0.3-0.7c0.2-0.2,0.4-0.3,0.6-0.4c0.4-0.2,0.9-0.3,1.3,0
		c0.5,0.7,0.1,1.7,0.3,1.9c0.1,0.1,0.2,0.1,0.3,0c0.4-0.4,0.8-1.4,1.5-1.1c0.6,0.4,1,1.5,1.2,2.4c0,0.5,0.2,1.1-0.2,1.4
		c-0.3,0.2-0.7-0.1-1,0.2c-0.1,0.4,0.1,0.5,0.3,0.9c0.3,0.3,0.6,0.8,1.2,0.8c0.7-0.1,0.8-0.9,1.2-1.4c0.1-0.1,0.1-0.1,0.2,0
		c0.7,0.5,1.6,0.9,2.5,0.7c0.4-0.1,0.9-0.3,1.1-0.8c0.1-0.3,0.1-0.6,0-0.9c-0.5-0.9-0.9,0.5-1.5,0.1c-0.7-0.5-1.2-1.3-1.5-2.1
		c-0.1-0.3-0.2-0.8,0.1-1.1c0.4-0.3,0.8,0,1.2,0c0.3,0,0.2-0.3,0.2-0.3c-0.3-0.5-1.1-0.6-1.1-1.3c0-0.6,0.5-0.8,1-1.1
		c0.8-0.4,1.8-0.6,2.7-0.5c0.2,0.1,0.4,0.1,0.5,0.4c0,0.2-0.1,0.4-0.1,0.5c-0.1,0.3-0.4,0.7-0.1,1c0.1,0.2,0.3,0.2,0.5,0.1
		c0.3-0.3,0.6-0.7,1-0.6c0.5,0.1,0.8,0.8,1,1.4c0.2,0.9,0.3,1.9-0.2,2.6c-0.5,0.5-0.9-0.5-1.4-0.1c-0.2,0.2,0,0.6,0.1,0.8
		c0.3,0.5,0.6,0.9,1.2,1c0.9,0.1,1.4-0.1,2.2-0.8c0.3-0.3,0.2-0.2,0.6-0.6c0.3,0.3,0.8,0.7,1.2,0.9c1,0.5,2.5,0.5,3.2-0.1
		c0.5-0.4,0.8-1.2,0.6-1.4c-0.8-0.8-0.8,0.4-1.4,0.6c-0.7,0.2-1,0.1-1.3-0.3c-0.8-1.1-0.9-2.6-0.4-4c0.1-0.1,0.1-0.1,0.2-0.3
		c0.3-0.4,0.6-0.5,0.9-0.4c0.5,0.1,0.8,0.5,1,0.9c0.1,0.2,0.3,0.2,0.5,0.1s0.3-0.3,0.2-0.5c-0.3-0.4-0.8-0.7-1-1.1
		c-0.2-0.3-0.3-0.7-0.1-1.1c0.1-0.3,0.4-0.5,0.6-0.7c0.6-0.4,1.4-0.6,2.1-0.6l0,0c0.8,0,1.5,0.2,2.1,0.6c0.3,0.2,0.5,0.4,0.6,0.7
		c0.2,0.3,0.1,0.8-0.1,1.1c-0.3,0.4-0.7,0.7-1,1.1c-0.1,0.2,0.1,0.4,0.2,0.5c0.2,0.1,0.4,0.1,0.5-0.1c0.2-0.4,0.5-0.8,1-0.9
		c0.4-0.1,0.7,0,0.9,0.4c0.1,0.1,0.1,0.1,0.2,0.3c0.5,1.3,0.4,2.9-0.4,4c-0.3,0.3-0.6,0.5-1.3,0.3c-0.5-0.2-0.6-1.4-1.4-0.6
		c-0.2,0.2,0.1,1,0.6,1.4c0.8,0.7,2.2,0.6,3.2,0.1c0.4-0.2,0.9-0.6,1.2-0.9c0.3,0.4,0.3,0.3,0.6,0.6c0.7,0.8,1.3,1,2.2,0.8
		c0.6-0.1,0.9-0.5,1.2-1c0.1-0.2,0.3-0.7,0.1-0.8c-0.5-0.4-0.9,0.5-1.4,0.1c-0.5-0.7-0.4-1.7-0.2-2.6c0.1-0.6,0.4-1.4,1-1.4
		c0.4-0.1,0.8,0.3,1,0.6c0.2,0.1,0.4,0.1,0.5-0.1c0.3-0.4,0-0.7-0.1-1c0-0.1-0.2-0.2-0.1-0.5c0.1-0.3,0.3-0.4,0.5-0.4
		c0.9-0.2,1.9,0.1,2.7,0.5c0.5,0.3,1,0.5,1,1.1s-0.8,0.8-1.1,1.3c0,0.1-0.1,0.4,0.2,0.3c0.4,0,0.8-0.3,1.2,0
		c0.3,0.3,0.2,0.7,0.1,1.1c-0.3,0.9-0.8,1.6-1.5,2.1c-0.6,0.4-1.1-1-1.5-0.1c-0.1,0.3-0.1,0.6,0,0.9c0.1,0.5,0.6,0.7,1.1,0.8
		c0.9,0.1,1.8-0.2,2.5-0.7c0.1-0.1,0.1-0.1,0.2,0c0.3,0.5,0.4,1.3,1.2,1.4c0.5,0,0.9-0.5,1.2-0.8c0.2-0.3,0.5-0.5,0.3-0.9
		c-0.2-0.3-0.7,0-1-0.2c-0.4-0.3-0.3-0.9-0.2-1.4c0.1-0.9,0.6-2,1.2-2.4c0.7-0.3,1.1,0.7,1.5,1.1c0.1,0.1,0.2,0,0.3,0
		c0.2-0.2-0.2-1.2,0.3-1.9c0.4-0.3,0.9-0.2,1.3,0c0.2,0.1,0.5,0.2,0.6,0.4C55.3,29.3,54.9,29.4,54.7,29.7L54.7,29.7z M54.9,19.8
		c-0.3,0.1-0.6-0.1-0.8-0.3c-0.3-0.1-0.4,0.2-0.7,0.1c-0.5-0.1-0.5-0.6-0.8-0.9c-0.5-0.6-0.9,0.2-1.4,0c-0.1-0.1-0.2-0.3-0.1-0.5
		c0-0.3,0.1-0.6,0.5-0.6c0.4-0.1,0.9-0.1,1.3,0.1c0.5,0.3,0.5,1.1,1.2,1.1c0.6-0.2-0.1-0.9,0.2-1c0.2-0.1,0.9,0.5,1,1
		c0.1,0.1,0.1,0.2,0.1,0.4C55.3,19.5,55.2,19.7,54.9,19.8L54.9,19.8z M55.5,25.8c-0.1,0-0.2,0.1-0.3-0.1c-0.1-0.6,0.3-1.2,0.6-1.7
		c-0.1-0.1-0.2-0.1-0.3-0.2c-0.3-0.4,0-0.9,0.1-1.3c-0.1-0.1-0.1-0.3-0.1-0.4c-0.1-0.5,0.2-0.9,0.6-1.2c0.3-0.5,0.3-1.2,0.1-1.7
		c-0.1-0.2,0.2-0.2,0.3-0.1c0.6,0.4,0.5,2,0,2.7c-0.1,0.1,0,0.3,0,0.4c0.1,0.3,0.1,0.2,0.3,0.6c0.2,0.5-0.1,0.8-0.2,1.3
		C56.3,24.8,56,25.4,55.5,25.8L55.5,25.8z M58.3,24.7c-0.3,1-0.9,1.8-1.4,2.7c-0.1,0.2-0.4,0.5-0.7,0.4c-0.3-0.2-0.3-0.4-0.2-0.5
		c1.6-2.2,2.8-5.3,1.9-8.1c-0.3-1.1-1.5-1.8-2.5-2.3c-1.2-0.5-2.6-0.7-3.9-0.4c-0.5,0.1-0.8,0.2-0.9-0.1c-0.1-0.1-0.1-0.2-0.1-0.3
		c0-0.4,0.4-0.4,0.6-0.5c2.1-0.5,4.2,0,5.9,1.1c0.6,0.4,1.2,1,1.5,1.7C59.3,20.4,59,22.7,58.3,24.7L58.3,24.7z"/>
	<g>
		<path fill="#123D64" d="M2,52.3v2.3c0,0,4.1,2.3,9.6,2.3s10.1-2.5,10.1-2.5s3.7,2.4,10.6,2.4c5.5,0,9.2-2.5,9.2-2.5
			s4.2,2.5,10.6,2.5c5.2,0,9.1-2.3,9.1-2.3v-2.3c0,0-4.2,2.4-9.3,2.4c-6.3,0-10.3-2.7-10.3-2.7s-5.3,2.9-9.6,2.9
			c-5.5,0-10.4-2.9-10.4-2.9s-4.2,2.7-10,2.7C6,54.9,2,52.3,2,52.3L2,52.3z"/>
		<path fill="#123D64" d="M2,58.1v2.3c0,0,4.1,2.3,9.6,2.3s10.1-2.5,10.1-2.5s3.7,2.4,10.6,2.4c5.5,0,9.2-2.5,9.2-2.5
			s4.4,2.7,10.7,2.7c5.2,0,9.1-2.3,9.1-2.3v-2.3c0,0-4.2,2.4-9.3,2.4c-6.3,0-10.3-2.7-10.3-2.7s-5.3,2.9-9.6,2.9
			c-5.5,0-10.4-2.9-10.4-2.9s-4.2,2.7-10,2.7C6,60.7,2,58.1,2,58.1L2,58.1z"/>
		<path fill="#123D64" d="M2,64v2.3c0,0,4.1,2.3,9.6,2.3s10.1-2.5,10.1-2.5s3.7,2.4,10.6,2.4c5.5,0,9.2-2.5,9.2-2.5
			s4.2,2.5,10.6,2.5c5.2,0,9.1-2.3,9.1-2.3v-2.3c0,0-4.2,2.4-9.3,2.4c-6.3,0-10.3-2.7-10.3-2.7s-5.3,2.9-9.6,2.9
			c-5.5,0-10.4-2.9-10.4-2.9s-4.2,2.7-10,2.7C6,66.4,2,64,2,64L2,64z"/>
	</g>
</g>
</svg>
