<?xml version="1.0" standalone="no"?>
<!DOCTYPE svg PUBLIC "-//W3C//DTD SVG 20010904//EN"
 "http://www.w3.org/TR/2001/REC-SVG-20010904/DTD/svg10.dtd">
<svg version="1.0" xmlns="http://www.w3.org/2000/svg"
 width="260.000000pt" height="260.000000pt" viewBox="0 0 260.000000 260.000000"
 preserveAspectRatio="xMidYMid meet">
<metadata>
Created by potrace 1.11, written by Peter Selinger 2001-2013
</metadata>
<g transform="translate(0.000000,260.000000) scale(0.100000,-0.100000)"
fill="#000000" stroke="none">
<path d="M1460 2493 c-114 -108 -122 -113 -228 -118 -130 -7 -139 -10 -161
-59 -16 -36 -27 -46 -74 -65 -48 -20 -61 -21 -91 -11 -20 6 -36 16 -36 20 0 5
-16 9 -35 8 -20 -1 -31 -5 -24 -9 8 -4 -10 -24 -50 -55 -33 -26 -61 -49 -61
-51 0 -6 20 7 82 54 31 24 62 43 70 43 20 -1 62 -26 52 -33 -28 -16 -197 -76
-204 -72 -5 3 -62 -33 -126 -81 -79 -59 -119 -82 -124 -74 -5 8 -9 5 -13 -9
-7 -30 1 -27 72 25 34 25 65 44 67 41 2 -2 -22 -32 -55 -68 -32 -35 -77 -85
-99 -110 -41 -45 -99 -155 -88 -166 3 -3 10 5 16 19 11 22 50 37 50 18 0 -5
15 -10 33 -12 l32 -4 -99 -96 c-54 -54 -102 -95 -106 -93 -5 3 -11 -2 -14 -11
-5 -14 -9 -14 -24 -3 -15 13 -16 12 -3 -3 9 -12 11 -31 7 -55 -4 -27 -3 -32 4
-18 7 16 9 13 9 -17 1 -38 18 -94 26 -86 3 3 0 40 -6 83 l-10 78 98 92 c54 50
117 108 140 129 l43 38 -15 -42 c-18 -52 -19 -59 -2 -37 6 9 17 13 24 9 12 -7
73 -153 73 -174 0 -6 -30 -76 -68 -156 -60 -129 -68 -141 -73 -116 l-7 29 -1
-32 c0 -17 -6 -44 -12 -60 -12 -33 5 -100 26 -100 11 0 11 4 -1 21 -8 11 -14
29 -14 40 0 29 152 348 162 338 23 -23 58 -160 58 -227 0 -81 -9 -95 -59 -95
-27 0 -32 -3 -21 -10 8 -5 30 -10 48 -10 l32 0 1 -112 2 -113 13 90 c7 50 18
128 23 175 6 47 15 116 20 154 9 64 8 72 -12 100 -19 27 -22 45 -23 134 l-1
102 76 2 c75 1 75 1 21 7 l-55 6 72 25 c40 13 71 26 68 28 -2 2 -40 -8 -85
-23 -45 -15 -83 -25 -85 -23 -7 7 165 273 193 297 15 13 21 20 15 17 -19 -11
-16 4 10 43 13 20 36 56 52 81 l28 45 19 -44 c10 -24 17 -45 16 -46 -110 -66
-148 -99 -53 -46 30 17 57 31 60 31 3 0 10 -10 16 -22 5 -13 23 -48 40 -78 31
-57 31 -55 -6 47 l-22 61 51 16 51 16 -50 -4 c-49 -3 -49 -3 -20 10 36 16 109
19 85 4 -12 -8 -9 -10 12 -10 l27 0 -26 -75 c-34 -102 -31 -107 49 -89 74 18
100 15 104 -9 2 -15 0 -16 -12 -6 -12 9 -13 9 -9 -3 4 -11 -16 -23 -77 -47
l-82 -32 -19 23 -19 23 5 -28 c3 -18 0 -30 -9 -34 -29 -11 -12 -19 39 -18 49
0 52 -1 53 -25 0 -31 12 -52 25 -45 14 9 11 -21 -4 -34 -10 -8 -17 -7 -26 2
-10 9 -11 8 -6 -5 6 -16 0 -18 -63 -18 -39 0 -74 -4 -77 -10 -4 -6 22 -10 70
-10 62 0 83 4 106 21 16 11 34 17 39 14 6 -4 10 -3 9 2 -3 19 2 27 10 14 8
-12 21 -12 93 2 45 10 88 17 93 17 6 0 9 -60 7 -167 -2 -91 1 -170 6 -175 10
-10 382 307 382 325 0 7 -9 32 -20 56 -11 24 -19 45 -18 46 18 16 191 94 198
90 6 -4 10 -1 10 4 0 6 4 11 10 11 5 0 9 -3 9 -7 -5 -32 6 -32 45 3 73 64 134
104 150 98 13 -5 13 -2 3 20 -7 14 -42 47 -80 73 -37 25 -64 50 -60 53 11 10
195 51 201 45 3 -3 0 -5 -7 -5 -7 0 -10 -4 -6 -9 3 -5 1 -12 -5 -16 -7 -4 -7
-12 0 -25 7 -12 6 -20 0 -23 -6 -3 -6 -5 1 -3 6 1 10 6 10 11 0 6 7 14 15 18
8 5 12 12 9 18 -4 5 1 12 9 15 9 3 16 12 16 19 0 7 7 15 15 19 8 3 15 12 15
21 0 8 5 15 12 15 6 0 9 3 5 6 -3 4 4 15 16 24 12 10 19 21 16 24 -3 3 -118 8
-255 11 -137 2 -238 1 -224 -3 14 -4 27 -16 28 -27 2 -11 5 -24 5 -29 5 -23
-25 -13 -71 24 -28 22 -57 40 -64 40 -7 0 -85 50 -174 110 -89 61 -167 110
-173 110 -7 0 -43 -30 -81 -67z m273 -73 c109 -76 117 -84 103 -99 -15 -14
-22 -14 -79 6 -34 12 -78 24 -98 28 -35 7 -38 10 -65 83 -15 43 -30 84 -32 91
-4 11 3 9 24 -5 16 -12 82 -58 147 -104z m-172 50 c8 -25 13 -58 11 -74 -3
-28 -5 -28 -49 -22 -25 3 -68 6 -94 6 -27 0 -49 4 -49 9 0 15 152 143 160 134
4 -4 14 -28 21 -53z m-384 -147 c-48 -19 -90 -33 -93 -30 -3 3 2 17 11 31 13
20 27 26 63 29 107 8 108 7 19 -30z m508 -15 c-12 -57 -21 -64 -34 -27 -10 29
-9 36 6 46 27 21 35 15 28 -19z m-391 -24 c-9 -21 -23 -44 -33 -52 -9 -7 -10
-11 -3 -7 6 3 12 1 12 -4 0 -6 -5 -11 -11 -11 -6 0 -10 -10 -9 -22 5 -56 2
-61 -32 -54 -17 3 -33 8 -35 10 -2 2 24 45 58 95 34 51 63 90 65 88 3 -2 -3
-21 -12 -43z m465 25 c36 -13 35 -16 -30 -53 l-46 -26 10 45 c11 48 17 51 66
34z m134 -10 c5 -18 2 -20 -21 -14 -35 9 -40 14 -22 25 24 15 37 12 43 -11z
m-303 -13 c0 -11 -19 -15 -25 -6 -3 5 1 10 9 10 9 0 16 -2 16 -4z m270 -16
l35 -19 -27 -1 c-21 0 -28 -5 -28 -20 0 -18 -7 -20 -72 -20 -39 0 -69 3 -66 6
10 9 113 73 118 73 3 0 21 -8 40 -19z m-780 -19 c0 -5 -7 -11 -14 -14 -10 -4
-13 -1 -9 9 6 15 23 19 23 5z m-50 -9 c0 -20 -27 -43 -43 -36 -30 11 -18 25
41 43 1 1 2 -3 2 -7z m-70 -42 c8 -5 12 -11 10 -13 -9 -7 -202 -48 -207 -44
-4 4 155 65 172 66 6 0 17 -3 25 -9z m997 -23 c9 -9 -11 -37 -26 -37 -9 0 -22
-5 -27 -10 -7 -7 -38 2 -95 25 l-84 36 114 -5 c63 -3 116 -7 118 -9z m-61 -82
c98 -42 180 -78 183 -80 2 -3 -64 -5 -148 -5 l-152 0 -26 58 c-32 73 -43 102
-39 102 2 0 84 -34 182 -75z m200 34 l16 -32 -28 6 c-106 20 -107 21 -101 3 8
-20 -18 -21 -52 -2 l-24 13 29 6 c16 3 52 12 79 20 28 8 53 16 57 16 4 1 15
-13 24 -30z m-1141 -6 c-76 -133 -80 -137 -155 -184 -117 -71 -176 -104 -160
-86 18 19 324 296 328 297 1 0 -5 -12 -13 -27z m-115 -24 c0 -41 0 -41 -150
-179 -122 -113 -135 -122 -126 -89 3 13 8 35 11 49 5 22 3 21 -9 -5 -9 -16
-15 -38 -16 -47 0 -30 -17 -29 -30 2 -7 17 -16 33 -21 36 -11 6 0 -25 18 -51
7 -11 13 -22 13 -26 0 -6 -150 -32 -156 -26 -11 11 46 92 124 177 56 60 90
104 86 111 -4 8 -3 9 4 5 7 -4 24 5 38 19 30 30 64 45 100 45 14 0 23 3 21 8
-3 4 17 7 44 7 l49 0 0 -36z m525 25 c26 -10 0 -21 -36 -16 -22 3 -27 7 -18
13 17 10 32 11 54 3z m839 -57 c49 -13 49 -13 25 -28 -47 -30 -55 -29 -72 7
-19 38 -20 38 47 21z m-1366 -139 c-8 -13 -45 -74 -82 -135 l-67 -113 -59 40
c-32 22 -61 44 -65 49 -4 8 264 178 284 181 2 0 -3 -10 -11 -22z m-195 -230
l37 -30 -17 -30 c-32 -54 -38 -53 -82 15 -22 35 -41 70 -41 79 0 36 21 29 103
-34z m889 -141 c2 -70 0 -127 -3 -127 -3 0 -6 66 -6 148 -1 174 5 161 9 -21z
m-854 7 c-1 -30 -3 -33 -16 -21 -11 12 -12 18 0 36 7 11 14 21 15 21 1 0 2
-16 1 -36z"/>
<path d="M623 2283 c9 -2 23 -2 30 0 6 3 -1 5 -18 5 -16 0 -22 -2 -12 -5z"/>
<path d="M708 2273 c6 -2 18 -2 25 0 6 3 1 5 -13 5 -14 0 -19 -2 -12 -5z"/>
<path d="M2310 2109 c0 -5 5 -7 10 -4 6 3 10 8 10 11 0 2 -4 4 -10 4 -5 0 -10
-5 -10 -11z"/>
<path d="M2303 1975 c0 -7 6 -11 12 -8 16 5 25 -29 14 -50 -7 -12 -2 -18 26
-28 19 -7 35 -17 35 -22 0 -4 5 -5 10 -2 6 3 10 3 10 -2 0 -4 11 -13 25 -20
l25 -11 -23 29 c-61 80 -71 90 -83 85 -8 -3 -14 1 -14 9 0 8 -8 19 -18 24 -14
7 -19 6 -19 -4z"/>
<path d="M2280 1937 c0 -2 6 -10 14 -16 11 -9 16 -9 22 1 4 7 4 10 -1 6 -4 -4
-14 -3 -22 3 -7 6 -13 9 -13 6z"/>
<path d="M83 1728 c-21 -12 -30 -24 -26 -34 3 -8 8 -12 11 -9 3 3 15 -3 26
-12 21 -18 21 -18 4 3 -23 27 -23 31 8 47 15 8 23 16 18 19 -5 3 -23 -4 -41
-14z"/>
<path d="M510 1595 c-7 -53 -10 -98 -8 -101 3 -2 11 38 18 91 7 53 10 98 8
101 -3 2 -11 -38 -18 -91z"/>
<path d="M292 1625 c-30 -62 -27 -71 4 -12 14 27 24 51 22 53 -3 2 -14 -17
-26 -41z"/>
<path d="M467 1589 c-15 -40 -25 -74 -23 -76 2 -2 15 29 30 68 15 39 25 73 23
76 -2 2 -16 -29 -30 -68z"/>
<path d="M135 1620 c10 -11 20 -20 23 -20 3 0 -3 9 -13 20 -10 11 -20 20 -23
20 -3 0 3 -9 13 -20z"/>
<path d="M711 1610 c0 -8 11 -37 25 -65 13 -27 21 -39 17 -25 -9 38 -42 107
-42 90z"/>
<path d="M185 1560 c10 -11 20 -20 23 -20 3 0 -3 9 -13 20 -10 11 -20 20 -23
20 -3 0 3 -9 13 -20z"/>
<path d="M548 1478 l-43 -61 -6 34 -6 34 -2 -35 c0 -20 -9 -52 -19 -71 -17
-34 -17 -36 -1 -32 9 3 20 15 23 26 3 12 25 49 49 82 51 71 60 85 53 85 -2 0
-24 -28 -48 -62z"/>
<path d="M411 1439 c-6 -18 -9 -34 -7 -36 2 -2 9 10 15 28 6 18 9 34 7 36 -2
2 -9 -10 -15 -28z"/>
<path d="M211 1404 c0 -11 3 -14 6 -6 3 7 2 16 -1 19 -3 4 -6 -2 -5 -13z"/>
<path d="M381 1359 c-6 -18 -9 -34 -7 -36 2 -2 9 10 15 28 6 18 9 34 7 36 -2
2 -9 -10 -15 -28z"/>
<path d="M201 1364 c0 -11 3 -14 6 -6 3 7 2 16 -1 19 -3 4 -6 -2 -5 -13z"/>
<path d="M191 1324 c0 -11 3 -14 6 -6 3 7 2 16 -1 19 -3 4 -6 -2 -5 -13z"/>
<path d="M472 1310 c0 -19 2 -27 5 -17 2 9 2 25 0 35 -3 9 -5 1 -5 -18z"/>
<path d="M252 1256 l-2 -70 -30 29 c-20 19 -30 39 -30 57 0 17 -4 27 -10 23
-21 -13 -9 -46 29 -80 29 -26 41 -47 46 -77 7 -40 7 -41 -76 -127 -83 -85 -83
-85 -9 -13 42 39 78 72 82 72 4 0 9 -17 11 -37 2 -21 4 -2 4 42 1 44 -2 118
-6 165 l-8 85 -1 -69z"/>
<path d="M272 1300 c0 -14 2 -19 5 -12 2 6 2 18 0 25 -3 6 -5 1 -5 -13z"/>
<path d="M351 1279 c-6 -18 -9 -34 -7 -36 2 -2 9 10 15 28 6 18 9 34 7 36 -2
2 -9 -10 -15 -28z"/>
<path d="M381 1243 c-25 -36 -26 -41 -6 -18 26 30 49 65 42 65 -2 0 -18 -21
-36 -47z"/>
<path d="M282 1240 c0 -14 2 -19 5 -12 2 6 2 18 0 25 -3 6 -5 1 -5 -13z"/>
<path d="M877 1191 c5 -19 1 -21 -50 -21 -31 0 -59 -5 -63 -12 -5 -8 10 -9 59
-4 48 5 67 3 67 -5 0 -19 -110 -359 -137 -424 -19 -45 -22 -60 -12 -64 7 -2
41 -30 76 -62 34 -33 66 -59 70 -59 5 0 -21 28 -56 61 -35 33 -60 64 -55 68 5
5 44 11 87 14 l78 6 14 -32 c28 -65 44 -105 88 -217 25 -63 49 -124 53 -135 6
-13 10 32 12 123 1 82 7 142 12 142 5 0 30 -5 55 -12 48 -13 50 -18 36 -80 -5
-22 -5 -38 0 -38 5 0 9 2 9 4 0 2 16 68 36 147 27 111 32 144 22 150 -7 4 -15
4 -18 0 -3 -5 -38 -11 -77 -15 l-73 -7 0 71 0 70 -95 146 c-52 80 -95 147 -95
149 0 2 -11 16 -24 30 -22 23 -24 24 -19 6z m50 -489 c-35 -7 -167 -17 -167
-13 0 3 19 62 41 130 l42 124 47 -119 c30 -75 44 -120 37 -122z m327 -39 c-7
-32 -14 -62 -14 -68 -1 -32 -17 -37 -74 -24 l-56 12 0 58 c0 66 0 66 95 72 28
2 53 4 57 5 3 1 0 -24 -8 -55z"/>
<path d="M292 1180 c0 -14 2 -19 5 -12 2 6 2 18 0 25 -3 6 -5 1 -5 -13z"/>
<path d="M306 1166 l-18 -34 42 -71 c50 -84 66 -96 20 -15 -17 31 -29 58 -27
60 6 6 179 -182 191 -207 5 -10 13 -19 19 -19 5 0 37 -30 71 -67 62 -67 63
-67 68 -40 4 23 -9 49 -70 140 -68 102 -118 168 -80 107 63 -104 110 -191 104
-197 -3 -4 -27 13 -51 37 -37 36 -50 60 -72 127 -29 90 -44 107 -19 22 9 -29
16 -55 16 -58 0 -3 -40 34 -88 82 -48 48 -91 85 -94 81 -14 -13 6 42 21 60 9
11 11 16 4 13 -6 -4 -13 -2 -15 3 -2 6 -11 -5 -22 -24z"/>
<path d="M395 950 c9 -16 18 -30 21 -30 2 0 -2 14 -11 30 -9 17 -18 30 -21 30
-2 0 2 -13 11 -30z"/>
<path d="M272 855 c1 -72 5 -99 24 -140 13 -27 24 -43 24 -35 0 8 12 -3 26
-25 28 -43 53 -71 39 -45 -5 8 -26 41 -48 74 -36 54 -38 58 -16 52 24 -7 24
-7 -1 8 -22 13 -26 25 -36 108 l-12 93 0 -90z"/>
<path d="M77 923 c-4 -3 -7 -11 -7 -17 0 -6 5 -5 12 2 6 6 9 14 7 17 -3 3 -9
2 -12 -2z"/>
<path d="M2213 880 c0 -25 2 -35 4 -22 2 12 2 32 0 45 -2 12 -4 2 -4 -23z"/>
<path d="M464 828 c24 -46 55 -102 68 -125 13 -24 27 -43 31 -43 5 0 6 3 4 8
-2 4 -35 60 -72 125 -76 133 -100 159 -31 35z"/>
<path d="M2243 888 c2 -7 0 -23 -4 -36 -6 -15 -5 -21 1 -17 6 3 10 1 10 -4 0
-6 -4 -11 -8 -11 -13 0 -10 -30 2 -30 6 0 4 -4 -4 -9 -8 -5 -91 -11 -185 -15
-93 -4 -192 -9 -218 -13 l-48 -6 3 -138 c3 -137 3 -138 -20 -149 l-24 -10 4
97 3 97 -35 7 c-19 4 -57 9 -85 13 -42 4 -46 4 -22 -5 25 -10 27 -15 27 -68 0
-35 6 -65 16 -79 15 -22 14 -21 -33 4 -26 15 -59 34 -73 44 -14 9 -43 27 -65
39 l-40 22 29 -23 c16 -13 51 -40 78 -61 63 -49 64 -66 1 -56 -59 8 -64 5 -21
-12 l33 -13 -50 -5 -50 -6 -3 -46 c-3 -41 0 -47 20 -52 13 -3 71 -24 130 -46
59 -23 113 -41 119 -41 7 0 9 19 5 57 -4 40 -3 52 3 38 5 -11 10 -39 10 -63 1
-28 6 -45 16 -48 18 -7 19 -39 5 -81 -9 -25 -16 -30 -47 -31 -19 -1 -44 -4
-54 -7 -11 -4 -19 -2 -19 3 0 5 10 12 22 15 41 11 13 13 -97 7 l-110 -7 90 -1
c108 -2 104 -16 -11 -37 -107 -21 -116 -24 -110 -41 5 -13 2 -12 -16 1 -24 16
-57 19 -96 8 -18 -4 -20 -8 -10 -14 18 -12 -10 -11 -181 6 -79 7 -148 18 -154
24 -8 8 -7 11 4 11 19 0 123 18 174 29 l40 9 -40 0 c-43 1 -55 -1 -255 -46
-74 -17 -170 -37 -212 -45 -75 -14 -77 -14 -67 4 5 11 37 48 71 84 l61 65 62
-35 c88 -49 94 -44 10 10 -38 25 -72 45 -75 44 -3 0 -20 -19 -39 -42 -70 -88
-103 -120 -111 -107 -5 8 -9 5 -13 -9 -8 -32 11 -37 108 -31 50 4 81 7 71 8
-32 3 -14 10 81 31 80 18 95 19 125 7 18 -8 101 -19 185 -26 97 -8 150 -17
146 -23 -4 -6 2 -8 15 -5 12 3 56 2 99 -3 47 -5 91 -5 113 1 19 5 39 9 44 9 5
0 12 4 15 9 7 11 154 72 159 67 9 -9 -11 -45 -25 -45 -9 0 -14 -2 -11 -5 3 -4
16 -3 29 0 17 4 24 14 26 32 1 28 15 41 55 49 15 4 37 17 49 30 12 13 32 24
43 24 12 0 72 25 134 55 62 30 116 54 120 53 24 -6 182 130 182 157 0 10 54
54 67 55 7 0 16 12 19 26 4 14 36 82 71 152 62 119 63 128 8 79 -40 -36 -125
-61 -125 -36 0 5 -4 7 -10 4 -5 -3 -10 -2 -10 3 0 6 -10 8 -22 4 -14 -3 -19
-1 -14 6 3 6 -2 17 -12 24 -10 7 -30 39 -45 71 -14 31 -29 57 -32 57 -4 0 -5
-6 -2 -12z m-404 -669 c36 -13 37 -16 14 -41 -18 -20 -63 -25 -63 -5 0 14 11
57 15 57 1 0 16 -5 34 -11z"/>
<path d="M531 867 c-2 -14 63 -220 66 -211 2 5 -12 56 -31 114 -19 58 -34 101
-35 97z"/>
<path d="M2210 804 c0 -8 5 -12 10 -9 6 4 8 11 5 16 -9 14 -15 11 -15 -7z"/>
<path d="M606 558 c8 -12 6 -188 -2 -197 -2 -3 -14 5 -27 16 -44 40 -51 35
-10 -8 23 -24 43 -55 46 -69 4 -24 4 -24 6 3 1 19 5 26 13 21 7 -5 8 -3 3 6
-5 7 -7 43 -5 79 7 147 6 155 -14 159 -13 3 -16 0 -10 -10z"/>
<path d="M366 546 c3 -9 13 -16 22 -16 8 0 13 1 11 3 -2 1 -12 9 -22 16 -15
12 -17 12 -11 -3z"/>
<path d="M410 548 c0 -13 16 -16 50 -9 l35 8 -42 4 c-24 3 -43 1 -43 -3z"/>
<path d="M523 553 c9 -2 25 -2 35 0 9 3 1 5 -18 5 -19 0 -27 -2 -17 -5z"/>
<path d="M553 514 c-18 -16 -21 -22 -8 -15 32 15 61 40 48 41 -7 0 -25 -12
-40 -26z"/>
<path d="M651 383 c2 -72 2 -73 45 -112 24 -22 44 -36 44 -31 0 15 -71 195
-81 205 -6 6 -9 -15 -8 -62z"/>
<path d="M1158 263 c5 -24 6 -25 12 -8 8 21 4 35 -9 35 -5 0 -6 -12 -3 -27z"/>
<path d="M603 180 c0 -47 2 -66 4 -42 2 23 2 61 0 85 -2 23 -4 4 -4 -43z"/>
<path d="M1685 242 c13 -4 -5 -10 -50 -18 l-70 -13 80 6 c44 3 83 7 88 10 16
10 -6 23 -36 22 -23 -1 -27 -3 -12 -7z"/>
<path d="M2079 223 c-13 -16 -12 -17 4 -4 16 13 21 21 13 21 -2 0 -10 -8 -17
-17z"/>
<path d="M1523 203 c9 -2 23 -2 30 0 6 3 -1 5 -18 5 -16 0 -22 -2 -12 -5z"/>
<path d="M1952 167 c10 -8 15 -17 12 -20 -3 -3 4 -3 16 0 24 6 16 18 -20 27
-23 6 -23 6 -8 -7z"/>
<path d="M1258 143 c7 -3 16 -2 19 1 4 3 -2 6 -13 5 -11 0 -14 -3 -6 -6z"/>
<path d="M1648 43 c6 -2 18 -2 25 0 6 3 1 5 -13 5 -14 0 -19 -2 -12 -5z"/>
<path d="M818 33 c12 -2 32 -2 45 0 12 2 2 4 -23 4 -25 0 -35 -2 -22 -4z"/>
<path d="M1118 23 c7 -3 16 -2 19 1 4 3 -2 6 -13 5 -11 0 -14 -3 -6 -6z"/>
<path d="M1168 23 c6 -2 18 -2 25 0 6 3 1 5 -13 5 -14 0 -19 -2 -12 -5z"/>
<path d="M1223 23 c9 -2 23 -2 30 0 6 3 -1 5 -18 5 -16 0 -22 -2 -12 -5z"/>
</g>
</svg>
